<svg xmlns="http://www.w3.org/2000/svg" viewBox="0 0 386.77 806.9"><defs><style>.cls-1,.cls-2{fill:#fff;}.cls-2{opacity:0.1;}</style></defs><title>Asset 2</title><g id="Layer_2" data-name="Layer 2"><g id="Layer_1-2" data-name="Layer 1"><path class="cls-1" d="M349.32,22a59.41,59.41,0,0,0-23.88-4.55H68.1A59.33,59.33,0,0,0,44.23,22,43.45,43.45,0,0,0,28.64,33.42,47.93,47.93,0,0,0,17.27,64.48V749.39a47.93,47.93,0,0,0,11.37,31.06,43.45,43.45,0,0,0,15.59,11.39,59.33,59.33,0,0,0,23.87,4.55H325.44a59.41,59.41,0,0,0,23.88-4.55,43.5,43.5,0,0,0,15.58-11.39,47.93,47.93,0,0,0,11.37-31.06V64.48A47.93,47.93,0,0,0,364.9,33.42,43.5,43.5,0,0,0,349.32,22Zm22.95,60V749.39a43.92,43.92,0,0,1-10.39,28.44,39.49,39.49,0,0,1-14.17,10.35,55.36,55.36,0,0,1-22.27,4.21H68.1a55.36,55.36,0,0,1-22.27-4.21,39.49,39.49,0,0,1-14.17-10.35,43.92,43.92,0,0,1-10.39-28.44V64.48A43.94,43.94,0,0,1,31.66,36,39.49,39.49,0,0,1,45.83,25.69,55.53,55.53,0,0,1,68.1,21.48H325.44a55.53,55.53,0,0,1,22.27,4.21A39.49,39.49,0,0,1,361.88,36a43.94,43.94,0,0,1,10.39,28.44Z"/><path class="cls-1" d="M372.84,26.55C365.1,17.62,350.59,7,325.44,7h-.17V4.83A5.1,5.1,0,0,0,320.42,0H263.25a5.09,5.09,0,0,0-4.81,4.86V7H68.1C43,7,28.44,17.62,20.71,26.55A58.58,58.58,0,0,0,6.77,64.48v51H4.5a4,4,0,0,0-4,4v33a4,4,0,0,0,4,4H6.77v17H4.45A4.8,4.8,0,0,0,0,177.89v51.22a4.64,4.64,0,0,0,4.31,4.38H6.77v13.74H4.35A4.55,4.55,0,0,0,0,251.52v51.62a4.71,4.71,0,0,0,4.48,4.32H6.77V749.4a58.61,58.61,0,0,0,13.94,37.94C28.44,796.26,43,806.9,68.1,806.9H325.44c25.15,0,39.66-10.64,47.4-19.56a58.65,58.65,0,0,0,13.93-37.94V64.48A58.63,58.63,0,0,0,372.84,26.55ZM261.44,4.86A2.13,2.13,0,0,1,263.25,3h57.17a2.13,2.13,0,0,1,1.85,1.83V7H261.44ZM4.5,153.46a1,1,0,0,1-1-1v-33a1,1,0,0,1,1-1H6.77v35Zm-.19,77A1.7,1.7,0,0,1,3,229.11V177.89a1.89,1.89,0,0,1,1.45-1.4H6.77v54Zm.17,74c-.55,0-1.48-.76-1.48-1.32V251.52a1.63,1.63,0,0,1,1.35-1.29H6.77v54.23ZM382.77,82V749.4a54.54,54.54,0,0,1-13,35.32c-7.19,8.29-20.73,18.18-44.37,18.18H68.1c-23.64,0-37.18-9.89-44.37-18.19a54.49,54.49,0,0,1-13-35.31V64.48a54.51,54.51,0,0,1,13-35.31C30.92,20.87,44.46,11,68.1,11H325.44c23.64,0,37.18,9.89,44.37,18.19a54.51,54.51,0,0,1,13,35.31Z"/><path class="cls-1" d="M196.77,56.24a8.5,8.5,0,1,0-8.5-8.5A8.51,8.51,0,0,0,196.77,56.24Zm0-14a5.5,5.5,0,1,1-5.5,5.5A5.5,5.5,0,0,1,196.77,42.24Z"/><circle class="cls-1" cx="196.77" cy="47.91" r="3"/><path class="cls-1" d="M169.52,85.58H224a7.75,7.75,0,0,0,0-15.5h-54.5a7.75,7.75,0,0,0,0,15.5Zm0-11.5H224a3.75,3.75,0,0,1,0,7.5h-54.5a3.75,3.75,0,0,1,0-7.5Z"/><path class="cls-1" d="M196.77,712.55a35,35,0,1,0,35,35A35,35,0,0,0,196.77,712.55Zm0,66a31,31,0,1,1,31-31A31,31,0,0,1,196.77,778.55Z"/><path class="cls-1" d="M203.77,733.47h-14a6.5,6.5,0,0,0-6.5,6.5v14a6.5,6.5,0,0,0,6.5,6.5h14a6.5,6.5,0,0,0,6.5-6.5V740A6.5,6.5,0,0,0,203.77,733.47Zm2.5,20.5a2.5,2.5,0,0,1-2.5,2.5h-14a2.5,2.5,0,0,1-2.5-2.5V740a2.51,2.51,0,0,1,2.5-2.5h14a2.51,2.51,0,0,1,2.5,2.5Z"/><path class="cls-1" d="M356.77,119.18h-320a4,4,0,0,0-4,4v568a4,4,0,0,0,4,4h320a4,4,0,0,0,4-4v-568A4,4,0,0,0,356.77,119.18Zm0,572h-320v-568h320Z"/><rect class="cls-2" x="36.79" y="123.22" width="320" height="568"/></g></g></svg>