<?xml version="1.0" encoding="utf-8"?>
<!-- Generator: Adobe Illustrator 27.5.0, SVG Export Plug-In . SVG Version: 6.00 Build 0)  -->
<svg version="1.1" id="Layer_1" xmlns="http://www.w3.org/2000/svg" xmlns:xlink="http://www.w3.org/1999/xlink" x="0px" y="0px"
	 viewBox="0 0 600 367.3" style="enable-background:new 0 0 600 367.3;" xml:space="preserve">
<style type="text/css">
	.st0{fill:#D2D9DC;}
	.st1{fill:#414141;}
	.st2{opacity:0.2;fill:#010101;}
	.st3{fill:#F36D4C;}
	.st4{fill:#00B1E3;}
	.st5{fill:#FFC808;}
	.st6{fill:#FFFFFF;}
	.st7{fill:#F5F5F5;}
</style>
<g id="Screen">
	<g>
		<rect y="35.5" class="st0" width="599.8" height="36.1"/>
		<path class="st1" d="M585.9,0H14.1C6.3,0,0,6.3,0,14.1v21.4h600V14.1C600,6.3,593.7,0,585.9,0z"/>
		<path class="st2" d="M582.9,0H17.1C7.6,0,0,7.6,0,17.1v336.2c0,7.8,6.3,14.1,14.1,14.1h571.8c7.8,0,14.1-6.3,14.1-14.1V17.1
			C600,7.6,592.4,0,582.9,0z M592.1,346.2c0,7.6-6.1,13.7-13.7,13.7H21.6c-7.6,0-13.7-6.1-13.7-13.7v-325c0-7.6,6.1-13.7,13.7-13.7
			h556.9c7.6,0,13.7,6.1,13.7,13.7V346.2z"/>
		<path class="st3" d="M573.8,20c0,3.4-2.7,6.1-6.1,6.1c-3.4,0-6.1-2.7-6.1-6.1s2.7-6.1,6.1-6.1C571,13.8,573.8,16.6,573.8,20z"/>
		<circle class="st4" cx="539.4" cy="20" r="6.1"/>
		<path class="st5" d="M504.4,17.9h13.4c1.1,0,2.1,0.9,2.1,2.1l0,0c0,1.1-0.9,2.1-2.1,2.1h-13.4c-1.1,0-2.1-0.9-2.1-2.1l0,0
			C502.4,18.8,503.3,17.9,504.4,17.9z"/>
		<g>
			<circle class="st6" cx="35.9" cy="53.5" r="9.9"/>
			<path class="st0" d="M40.6,52.7h-7.7l2.8-2.2c0.4-0.3,0.4-0.8,0.1-1.2c-0.3-0.4-0.8-0.4-1.2-0.1L30,52.9c0,0,0,0,0,0
				c-0.1,0.1-0.1,0.1-0.2,0.2c0,0,0,0.1-0.1,0.1c0,0.1-0.1,0.2-0.1,0.3c0,0.1,0,0.2,0.1,0.3c0,0,0,0.1,0.1,0.1
				c0,0.1,0.1,0.1,0.2,0.2c0,0,0,0,0,0l4.6,3.8c0.2,0.1,0.3,0.2,0.5,0.2c0.2,0,0.5-0.1,0.7-0.3c0.3-0.4,0.2-0.9-0.1-1.2l-2.8-2.2
				h7.7c0.5,0,0.8-0.4,0.8-0.8C41.4,53.1,41,52.7,40.6,52.7z"/>
		</g>
		<g>
			<circle class="st6" cx="64.6" cy="53.5" r="9.9"/>
			<path class="st0" d="M59.5,54.4h7.7l-2.8,2.2c-0.4,0.3-0.4,0.8-0.1,1.2c0.3,0.4,0.8,0.4,1.2,0.1l4.6-3.8c0,0,0,0,0,0
				c0.1-0.1,0.1-0.1,0.2-0.2c0,0,0-0.1,0.1-0.1c0-0.1,0.1-0.2,0.1-0.3s0-0.2-0.1-0.3c0,0,0-0.1-0.1-0.1c0-0.1-0.1-0.1-0.2-0.2
				c0,0,0,0,0,0l-4.6-3.8c-0.2-0.1-0.3-0.2-0.5-0.2c-0.2,0-0.5,0.1-0.7,0.3c-0.3,0.4-0.2,0.9,0.1,1.2l2.8,2.2h-7.7
				c-0.5,0-0.8,0.4-0.8,0.8C58.7,54,59,54.4,59.5,54.4z"/>
		</g>
		<g>
			<circle class="st6" cx="93.2" cy="53.5" r="9.9"/>
			<g>
				<g>
					<path class="st0" d="M92.3,59.1c-3.1,0-5.6-2.5-5.6-5.6c0-3.1,2.5-5.6,5.6-5.6c3.1,0,5.6,2.5,5.6,5.6c0,0.5-0.4,0.8-0.8,0.8
						c-0.5,0-0.8-0.4-0.8-0.8c0-2.1-1.7-3.9-3.9-3.9c-2.1,0-3.9,1.7-3.9,3.9c0,2.1,1.7,3.9,3.9,3.9c0.5,0,0.8,0.4,0.8,0.8
						C93.2,58.7,92.8,59.1,92.3,59.1z"/>
				</g>
				<g>
					<path class="st0" d="M97.1,55c-0.1,0-0.3,0-0.4-0.1l-3.4-1.7c-0.4-0.2-0.6-0.7-0.4-1.1c0.2-0.4,0.7-0.6,1.1-0.4l2.9,1.4
						l2.1-2.3c0.3-0.3,0.9-0.4,1.2-0.1c0.3,0.3,0.4,0.9,0.1,1.2l-2.5,2.8C97.5,54.9,97.3,55,97.1,55z"/>
				</g>
			</g>
		</g>
		<path class="st6" d="M343.8,62H132.5c-4.7,0-8.5-3.8-8.5-8.5v0c0-4.7,3.8-8.5,8.5-8.5h211.3c4.7,0,8.5,3.8,8.5,8.5v0
			C352.3,58.2,348.5,62,343.8,62z"/>
	</g>
	<path class="st7" d="M585.5,360.4H14.5c-3.6,0-6.6-3-6.6-6.6V71.6h584.1v282.2C592.1,357.5,589.1,360.4,585.5,360.4z"/>
</g>
</svg>
