<svg xmlns="http://www.w3.org/2000/svg" viewBox="0 0 1901 1095.49"><defs><style>.cls-1,.cls-2{fill:#fff;}.cls-2{opacity:0.1;}</style></defs><title>Asset 1</title><g id="Layer_2" data-name="Layer 2"><g id="Layer_1-2" data-name="Layer 1"><path class="cls-1" d="M1898,1034.49H1722.27a57.31,57.31,0,0,0,3.15-18.74V57.67A57.73,57.73,0,0,0,1667.75,0H233.5a57.73,57.73,0,0,0-57.66,57.67v958.08a57.31,57.31,0,0,0,3.15,18.74H3a3,3,0,0,0-3,3v29.45a5.76,5.76,0,0,0,2.19,5c.52.39,1.08.79,1.67,1.2h0c13.09,9,45.94,22.42,82.78,22.42H1814.36c36.83,0,69.68-13.41,82.78-22.42h0c.75-.52,1.47-1,2.13-1.56a5,5,0,0,0,1.73-4.19v-29.83A3.09,3.09,0,0,0,1898,1034.49ZM179.84,1015.75V57.67A53.73,53.73,0,0,1,233.5,4H1667.75a53.74,53.74,0,0,1,53.67,53.67v958.08a53.22,53.22,0,0,1-3.41,18.74H1561l-.2-.88-4.71-20.87h140a20,20,0,0,0,20-20V57A47.72,47.72,0,0,0,1668.44,9.3H232.81A47.72,47.72,0,0,0,185.14,57V992.74a20,20,0,0,0,20,20H340.53l-4.7,20.87-.2.88H183.24A53.21,53.21,0,0,1,179.84,1015.75ZM816,1034.49H339.73l4.87-21.62H1552l4.88,21.62H816Zm264.77,4c-1.17,6.44-7.51,17.42-18.71,17.42H838.94c-11.21,0-17.54-11-18.72-17.42Zm-875.65-29.75a16,16,0,0,1-16-16V57A43.72,43.72,0,0,1,232.81,13.3H1668.44A43.72,43.72,0,0,1,1712.11,57V992.74a16,16,0,0,1-16,16ZM4,1038.49H816.17c1.16,8.28,9.1,21.42,22.77,21.42h223.14c13.66,0,21.6-13.14,22.76-21.42H1897v28.83c0,.38,0,.91-.18,1-.46.36-.94.72-1.44,1.07H5.62c-.36-.25-.7-.51-1-.76S4,1068,4,1066.91Zm1810.36,53H86.65c-31.18,0-59.32-9.78-74.51-18.07H1888.87C1873.68,1081.71,1845.53,1091.49,1814.36,1091.49Z"/><path class="cls-1" d="M1672.58,61.61H228.36a5,5,0,0,0-5,5V969.75a5,5,0,0,0,5,5H1672.58a5,5,0,0,0,5-5V66.61A5,5,0,0,0,1672.58,61.61Zm0,908.14H228.36V66.61H1672.58Z"/><path class="cls-1" d="M950.89,48.08a8,8,0,1,0-8-8A8,8,0,0,0,950.89,48.08Zm0-12a4,4,0,1,1-4,4A4,4,0,0,1,950.89,36.08Z"/><path class="cls-1" d="M654.86,1089.11h1.19c5.55-.15,8.77-1.18,9.58-3a2.62,2.62,0,0,0-.5-2.82c-2.28-2.56-10.43-2.69-12-2.69h-1.18c-5.55.15-8.77,1.17-9.58,3a2.62,2.62,0,0,0,.5,2.82C645.11,1089,653.25,1089.11,654.86,1089.11Z"/><path class="cls-1" d="M1242.65,1089.1h1.19c1.61,0,9.75-.13,12-2.69a2.6,2.6,0,0,0,.5-2.82c-.81-1.87-4-2.89-9.58-3h-1.18c-1.61,0-9.76.13-12,2.69a2.62,2.62,0,0,0-.5,2.82C1233.88,1087.92,1237.11,1089,1242.65,1089.1Z"/><rect class="cls-2" x="228.36" y="66.61" width="1444.22" height="903.13"/></g></g></svg>